<?xml version="1.0" encoding="UTF-8" standalone="no"?>
<!-- Created with Inkscape (http://www.inkscape.org/) -->

<svg
   xmlns:dc="http://purl.org/dc/elements/1.1/"
   xmlns:cc="http://creativecommons.org/ns#"
   xmlns:rdf="http://www.w3.org/1999/02/22-rdf-syntax-ns#"
   xmlns:svg="http://www.w3.org/2000/svg"
   xmlns="http://www.w3.org/2000/svg"
   xmlns:sodipodi="http://sodipodi.sourceforge.net/DTD/sodipodi-0.dtd"
   xmlns:inkscape="http://www.inkscape.org/namespaces/inkscape"
   width="16"
   height="16"
   viewBox="0 0 16 16"
   id="svg2"
   version="1.1"
   inkscape:version="0.91 r13725"
   sodipodi:docname="favicon.svg"
   inkscape:export-filename="/home/kale/glooey/logo/favicon.png"
   inkscape:export-xdpi="376.72"
   inkscape:export-ydpi="376.72">
  <defs
     id="defs4" />
  <sodipodi:namedview
     id="base"
     pagecolor="#ffffff"
     bordercolor="#666666"
     borderopacity="1.0"
     inkscape:pageopacity="0.0"
     inkscape:pageshadow="2"
     inkscape:zoom="0.35"
     inkscape:cx="375"
     inkscape:cy="520"
     inkscape:document-units="px"
     inkscape:current-layer="layer1"
     showgrid="false"
     units="px" />
  <metadata
     id="metadata7">
    <rdf:RDF>
      <cc:Work
         rdf:about="">
        <dc:format>image/svg+xml</dc:format>
        <dc:type
           rdf:resource="http://purl.org/dc/dcmitype/StillImage" />
        <dc:title></dc:title>
      </cc:Work>
    </rdf:RDF>
  </metadata>
  <g
     inkscape:label="Layer 1"
     inkscape:groupmode="layer"
     id="layer1"
     transform="translate(0,-1036.3622)">
    <g
       style="color:#000000;font-style:normal;font-variant:normal;font-weight:normal;font-stretch:normal;font-size:15px;line-height:110.00000238%;font-family:'Liberation Sans';-inkscape-font-specification:'Liberation Sans, Normal';text-indent:0;text-align:start;text-decoration:none;text-decoration-line:none;letter-spacing:0px;word-spacing:0px;text-transform:none;direction:ltr;block-progression:tb;writing-mode:lr-tb;baseline-shift:baseline;text-anchor:start;display:inline;overflow:visible;visibility:visible;fill:#000000;fill-opacity:1;fill-rule:nonzero;stroke:none;stroke-width:1px;stroke-linecap:butt;stroke-linejoin:miter;stroke-opacity:1;marker:none;enable-background:accumulate"
       id="text4136"
       transform="matrix(1.5238095,0,0,1.5238095,-4.1904757,-547.04684)">
      <path
         d="m 9.2482811,1039.1422 q 0.165,0.015 0.33,0.03 0.18,0.015 0.345,0.06 0.1649999,0.015 0.2999999,0.06 0.15,0.045 0.315,0.075 0.195,0.09 0.39,0.165 0.21,0.06 0.375,0.18 0.105,0.06 0.195,0.15 0.105,0.075 0.195,0.165 0.075,0.075 0.15,0.15 0.075,0.075 0.105,0.195 0.045,0.03 0.045,0.075 0,0.03 0.03,0.06 0.03,0.075 0.06,0.165 0.03,0.075 0.06,0.165 0.03,0.015 0.015,0.03 -0.015,0 -0.015,0.015 0.03,0.165 0.015,0.33 -0.015,0.15 -0.045,0.315 -0.015,0.06 -0.03,0.12 -0.015,0.06 -0.06,0.105 -0.075,0.165 -0.18,0.315 -0.105,0.135 -0.075,0.345 0.015,0.075 0.045,0.135 0.03,0.045 0.045,0.105 0.105,0.285 0.045,0.585 -0.06,0.285 -0.255,0.48 -0.165,0.18 -0.435,0.285 -0.12,0.06 -0.24,0.075 -0.12,0.015 -0.24,0.03 -0.27,0.03 -0.495,-0.075 -0.21,-0.105 -0.4649999,-0.135 -0.165,-0.015 -0.24,0.12 -0.075,0.12 -0.195,0.18 -0.165,0.105 -0.33,0.165 -0.15,0.045 -0.315,0.15 -0.36,0.165 -0.615,0.465 -0.045,0.075 -0.105,0.135 -0.045,0.045 -0.075,0.12 0,0.03 -0.03,0.045 -0.03,0.015 -0.03,0.045 l -0.06,0.165 q -0.015,0.075 -0.03,0.135 -0.015,0.06 0,0.135 -0.03,0.18 0.045,0.36 0.075,0.165 0.195,0.3 0.09,0.105 0.18,0.15 0.195,0.165 0.435,0.24 0.255,0.06 0.51,0.075 0.015,0.015 0.075,0.015 0.075,0.015 0.15,0 0.075,-0.015 0.15,-0.015 0.135,0 0.27,-0.045 0.165,-0.03 0.3299999,-0.075 0.165,-0.06 0.285,-0.21 0.075,-0.06 0.075,-0.15 0.015,-0.105 -0.015,-0.195 -0.045,-0.075 -0.12,-0.135 -0.075,-0.075 -0.18,-0.075 -0.12,-0.015 -0.2249999,0.045 -0.105,0.045 -0.195,0.12 -0.03,0 -0.045,0.015 0,0.015 -0.03,0.015 -0.165,0.075 -0.36,0.09 -0.18,0.015 -0.345,-0.09 -0.09,-0.06 -0.18,-0.135 -0.075,-0.075 -0.12,-0.18 -0.06,-0.165 -0.015,-0.345 0.045,-0.195 0.165,-0.315 0.135,-0.12 0.285,-0.195 0.165,-0.09 0.36,-0.09 0.165,-0.015 0.3,0.045 0.15,0.06 0.2999999,0.09 0.21,0.075 0.45,0.075 0.24,0 0.465,-0.03 0.12,-0.03 0.225,-0.075 0.12,-0.045 0.24,-0.09 0.12,-0.03 0.24,-0.06 0.12,-0.045 0.255,-0.015 0.12,0.015 0.24,0.075 0.135,0.045 0.225,0.165 0.195,0.24 0.195,0.57 0.015,0.36 -0.09,0.675 -0.09,0.315 -0.12,0.66 -0.03,0.165 -0.015,0.315 0.03,0.15 0.03,0.315 0,0.375 -0.165,0.705 -0.15,0.315 -0.45,0.525 -0.255,0.195 -0.555,0.315 -0.285,0.105 -0.585,0.225 -0.255,0.06 -0.51,0.12 -0.2549999,0.045 -0.5099999,0.06 -0.255,0.015 -0.525,0.015 -0.27,0 -0.525,-0.03 -0.24,-0.015 -0.48,-0.045 -0.225,-0.045 -0.45,-0.09 -0.15,-0.03 -0.285,-0.075 -0.12,-0.045 -0.255,-0.075 -0.345,-0.12 -0.69,-0.255 -0.345,-0.15 -0.66,-0.33 -0.165,-0.12 -0.33,-0.225 -0.15,-0.105 -0.3,-0.24 -0.15,-0.12 -0.3,-0.045 -0.06,0.015 -0.105,0.06 -0.03,0.045 -0.075,0.075 -0.09,0.045 -0.21,0.075 -0.105,0.03 -0.195,-0.03 -0.12,-0.075 -0.12,-0.255 0.03,-0.03 0.03,-0.06 0,-0.045 0.045,-0.075 0.03,-0.03 0.06,-0.045 0.045,-0.015 0.09,-0.045 0.03,0 0.03,-0.03 0.045,0.015 0.075,0 0.045,-0.03 0.075,-0.015 0.03,-0.03 0.045,-0.015 0.03,0 0.06,-0.03 0.075,-0.03 0.15,-0.075 0.09,-0.06 0.12,-0.135 0.045,-0.15 -0.03,-0.24 -0.075,-0.105 -0.135,-0.225 -0.21,-0.255 -0.42,-0.48 -0.195,-0.225 -0.36,-0.48 -0.075,-0.075 -0.12,-0.165 -0.045,-0.09 -0.09,-0.18 -0.27,-0.555 -0.27,-1.215 -0.045,-0.495 0.15,-0.975 0.06,-0.12 0.105,-0.24 0.06,-0.135 0.09,-0.27 0.03,-0.18 0.015,-0.345 0,-0.18 0.075,-0.345 0.045,-0.195 0.15,-0.36 0.105,-0.18 0.06,-0.405 -0.015,-0.075 -0.075,-0.12 -0.045,-0.045 -0.105,-0.09 -0.045,-0.045 -0.09,-0.105 -0.03,-0.06 -0.03,-0.15 0,-0.195 0.195,-0.27 0.12,-0.03 0.225,0.015 0.12,0.03 0.255,0 0.255,-0.075 0.42,-0.24 0.18,-0.18 0.39,-0.33 0.27,-0.27 0.585,-0.465 0.33,-0.195 0.675,-0.345 0.18,-0.09 0.36,-0.165 0.195,-0.075 0.405,-0.105 0.09,-0.03 0.195,-0.045 0.105,-0.03 0.195,-0.06 0.18,-0.045 0.375,-0.045 0.195,-0.015 0.39,-0.045 l 0.795,0.03 z m 0.75,0.03 0,-0.015 0,0.015 z m -5.445,0.855 q 0.105,0.135 0.03,0.3 -0.03,0.06 -0.075,0.105 -0.075,0.03 -0.18,0.045 -0.09,0 -0.165,-0.06 -0.045,-0.045 -0.09,-0.09 -0.045,-0.045 -0.06,-0.12 -0.015,-0.06 0,-0.105 0.015,-0.045 0.03,-0.09 0.045,-0.135 0.15,-0.15 0.12,-0.03 0.21,0.015 0.105,0.045 0.15,0.15 z m 0.705,0.165 q 0,0.015 -0.015,0.015 0,0 0,0 0,0 0,-0.03 l 0.015,0.015 z m 5.9849999,1.86 q -0.03,0.015 -0.045,0 0,-0.015 -0.03,0.015 -0.075,-0.015 -0.12,0.045 -0.045,0.045 -0.075,0.12 -0.06,0.12 0.03,0.21 0.045,0.03 0.075,0.06 0.045,0.03 0.09,0.015 0.06,0 0.105,-0.03 0.045,-0.045 0.075,-0.075 0.045,-0.06 0.045,-0.105 0.015,-0.06 0.015,-0.135 -0.045,-0.09 -0.165,-0.12 z m -5.6849999,5.235 q -0.03,-0.195 -0.165,-0.285 -0.045,-0.03 -0.12,0 -0.075,0.075 -0.045,0.15 0.03,0.075 0.045,0.15 0.045,0.03 0.075,0.09 0.03,0.045 0.105,0.045 0.045,0 0.045,0 0.045,-0.03 0.045,-0.075 0.015,-0.045 0.015,-0.075 z m -1.185,1.41 q 0.075,0.12 0.015,0.27 -0.09,0.12 -0.225,0.135 l -0.12,-0.03 q -0.045,-0.03 -0.09,-0.06 -0.045,-0.045 -0.06,-0.12 0,-0.09 0.045,-0.21 0.045,-0.045 0.12,-0.075 0.09,-0.045 0.165,-0.015 0.045,0 0.075,0.045 0.045,0.03 0.075,0.06 z"
         style="font-style:normal;font-variant:normal;font-weight:normal;font-stretch:normal;font-family:'Spilt Ink';-inkscape-font-specification:'Spilt Ink'"
         id="path4141"
         inkscape:connector-curvature="0" />
    </g>
  </g>
</svg>
